<?xml version="1.0" standalone="no"?>
<!DOCTYPE svg PUBLIC "-//W3C//DTD SVG 1.1//EN" "http://www.w3.org/Graphics/SVG/1.1/DTD/svg11.dtd" >
<svg xmlns="http://www.w3.org/2000/svg">
<metadata>Generated by IcoMoon</metadata>
<defs>
<font id="icomoon" horiz-adv-x="1024">
<font-face units-per-em="1024" ascent="960" descent="-64" />
<missing-glyph horiz-adv-x="1024" />
<glyph unicode="&#x20;" horiz-adv-x="512" d="" />
<glyph unicode="&#xe900;" glyph-name="whisk-and-bowl" d="M740.311 794.133c9.892-18.67 29.155-29.358 49-29.358 8.713 0 17.529 2.058 25.724 6.396l154.162 81.689c26.862 14.239 37.195 47.866 22.959 74.731l-1.617 3.048c-9.895 18.673-29.165 29.362-49.014 29.362-8.706 0-17.522-2.058-25.714-6.396l-154.159-81.696c-26.865-14.236-37.198-47.863-22.962-74.724l1.62-3.051zM120.263 467.518c0.434-0.821 0.917-1.655 1.431-2.493 28.489-51.541 82.396-83.482 141.495-83.482 26.172 0 52.296 6.516 75.555 18.839 113.378 60.085 235.617 250.549 259.627 289.209l114.278 60.554c-5.813 6.372-10.912 13.488-15.067 21.325l-1.627 3.072c-4.186 7.902-7.247 16.108-9.237 24.428l-114.25-60.544c-10.15 0.4-29.644 0.993-55.217 0.993-104.496 0-246.546-9.268-329.862-53.42-78.703-41.712-108.827-139.65-67.174-218.374 0.017-0.034 0.031-0.072 0.048-0.107zM312.865 449.227c-15.536-8.233-32.251-12.409-49.676-12.409-16.412 0-32.199 3.789-46.397 10.65 24.735 6.23 52.317 17.098 80.131 31.837 47.818 25.341 104.158 63.064 155.007 99.573-42.522-52.593-92.608-105.031-139.064-129.652zM271.039 528.148c-42.729-22.638-77.217-31.044-95.825-31.427 10.185 14.115 36.44 38.488 79.886 61.512 48.738 25.828 115.615 52.321 176.552 74.293-52.379-38.078-111.857-78.538-160.613-104.379zM213.275 637.15c46.514 24.648 118.205 36.643 185.434 42.298-58.782-21.576-121.656-47.025-169.494-72.373-25.224-13.367-50.752-30.055-71.273-48.197 4.855 32.24 24.376 61.871 55.334 78.272zM968.039 347.124h-912.077c-19.080 0-34.551-15.467-34.551-34.551 0-93.894 53.541-189.426 146.897-262.092 94.853-73.825 216.905-114.481 343.692-114.481 126.783 0 248.839 40.657 343.688 114.485 93.356 72.663 146.901 168.195 146.901 262.092-0.003 19.080-15.47 34.547-34.551 34.547z" />
<glyph unicode="&#xe901;" glyph-name="tea-cup" d="M885.472 705.336h-26.918v81.562h-693.106v-220.086c0-66.29 18.786-130.732 54.324-186.352 16.002-25.046 35.072-47.758 56.624-67.75h471.208c21.552 19.992 40.622 42.708 56.626 67.75 9.786 15.316 18.252 31.318 25.456 47.826h55.788c76.386 0 138.528 62.144 138.528 138.528-0.002 76.38-62.146 138.522-138.53 138.522zM885.472 489.12h-35.738c5.804 25.318 8.818 51.354 8.818 77.694v77.688h26.918c42.842 0 77.694-34.852 77.694-77.688 0.002-42.842-34.852-77.694-77.692-77.694zM656.944 251.876h-656.944v-10.14c0-73.134 59.498-132.636 132.63-132.636h758.738c73.132 0 132.632 59.502 132.632 132.636v10.14h-367.056z" />
<glyph unicode="&#xe902;" glyph-name="ranking" d="M212 419h-120c-16.568 0-30-13.432-30-30v-182c0-16.568 13.432-30 30-30h120c16.568 0 30 13.432 30 30v182c0 16.568-13.432 30-30 30zM452 539h-120c-16.568 0-30-13.432-30-30v-302c0-16.568 13.432-30 30-30h120c16.568 0 30 13.432 30 30v302c0 16.568-13.432 30-30 30zM692 629h-120c-16.568 0-30-13.432-30-30v-392c0-16.568 13.432-30 30-30h120c16.566 0 30 13.432 30 30v392c0 16.568-13.434 30-30 30zM932 719h-120c-16.568 0-30-13.432-30-30v-482c0-16.568 13.432-30 30-30h120c16.566 0 30 13.432 30 30v482c0 16.568-13.434 30-30 30z" />
<glyph unicode="&#xe903;" glyph-name="locked" d="M142.269-64h739.451c36.793 0 66.621 29.828 66.621 66.621v539.587c0 36.793-29.828 66.623-66.621 66.623h-12.795c-3.188 194.163-162.022 351.168-356.931 351.168-194.907 0-353.743-157.005-356.918-351.17h-12.795c-36.793 0-66.621-29.828-66.621-66.623v-539.599c0-36.78 29.817-66.608 66.61-66.608zM576.716 268.885v-161.727c0-32.588-26.428-59.020-59.020-59.020h-11.414c-32.59 0-59.020 26.43-59.020 59.020v161.727c-34.644 21.639-57.782 59.998-57.782 103.864 0 67.649 54.842 122.504 122.502 122.504s122.502-54.842 122.502-122.504c0.015-43.866-23.12-82.227-57.766-103.864zM511.994 818.352c116.789 0 211.954-93.476 215.129-209.522h-430.257c3.177 116.033 98.34 209.522 215.129 209.522z" />
<glyph unicode="&#xe904;" glyph-name="icon" d="M778.164 591.29h-218.721c19.762 0 35.833 16.071 35.833 35.863s-16.1 35.746-35.833 35.746h-89.453c-19.762 0-35.804-15.955-35.804-35.746s16.071-35.863 35.804-35.863h-218.75c-60.856 0-111.249-54.549-121.043-112.615h769.097c-9.852 58.095-60.246 112.615-121.13 112.615zM901.068 417.209v10.23h-901.068v-51.207h128.367v-317.299c0-67.947 55.043-122.903 122.874-122.903h526.952c67.889 0 122.903 54.956 122.903 122.903v307.069h122.903v51.207h-122.932zM326.657 836.922c3.575-4.708 7.382-9.242 11.363-13.514l9.91-9.939c6.277-6.306 12.119-12.613 16.769-18.28 2.325-2.848 4.243-5.551 5.667-7.789 1.366-2.209 2.616-3.923 2.906-6.481 0.349-2.732-1.075-6.423-3.865-10.114-2.79-3.633-6.684-7.149-11.247-10.666 5.406-2.092 11.305-2.79 17.583-2.034 6.248 0.727 13.107 3.517 18.832 9.474 5.667 5.958 8.835 14.764 9.329 22.523 0.552 7.847-0.639 14.938-2.412 21.332-3.575 12.729-9.503 23.046-15.839 32.52-3.168 4.65-7.091 9.358-9.881 12.991-2.79 3.284-5.376 6.655-7.73 9.997-9.59 13.339-16.304 25.371-18.803 39.495-2.616 14.299 0.291 32.579 8.922 53.532-22.407-4.708-42.343-23.453-48.853-49.667-3.226-12.933-2.528-27.144 0.93-39.612 3.429-12.729 9.503-23.947 16.42-33.77zM459.441 836.922c3.575-4.708 7.411-9.242 11.363-13.514l9.881-9.939c6.277-6.306 12.090-12.613 16.856-18.28 2.238-2.848 4.156-5.551 5.609-7.789 1.424-2.209 2.616-3.923 2.848-6.481 0.378-2.732-1.017-6.423-3.807-10.114-2.761-3.633-6.684-7.149-11.305-10.666 5.464-2.092 11.392-2.79 17.641-2.034 6.219 0.727 13.165 3.517 18.832 9.474 5.725 5.958 8.835 14.764 9.358 22.523 0.552 7.847-0.61 14.938-2.383 21.332-3.633 12.729-9.59 23.046-15.926 32.52-3.11 4.65-7.062 9.358-9.852 12.991-2.732 3.284-5.376 6.655-7.672 9.997-9.62 13.339-16.362 25.371-18.861 39.495-2.616 14.24 0.232 32.52 8.835 53.474-22.378-4.708-42.285-23.453-48.766-49.667-3.226-12.933-2.557-27.144 0.901-39.612 3.487-12.671 9.445-23.889 16.449-33.712zM580.427 836.922c3.546-4.708 7.353-9.242 11.334-13.514l9.91-9.939c6.277-6.306 12.061-12.613 16.769-18.28 2.325-2.848 4.243-5.551 5.667-7.789 1.366-2.209 2.557-3.923 2.906-6.481 0.378-2.732-1.075-6.423-3.865-10.114-2.761-3.633-6.684-7.149-11.305-10.666 5.464-2.092 11.392-2.79 17.583-2.034 6.248 0.727 13.165 3.517 18.89 9.474 5.667 5.958 8.806 14.764 9.3 22.523 0.581 7.847-0.61 14.938-2.383 21.332-3.575 12.729-9.474 23.046-15.839 32.52-3.168 4.65-7.091 9.358-9.881 12.991-2.79 3.284-5.406 6.655-7.73 9.997-9.59 13.339-16.304 25.371-18.774 39.495-2.645 14.299 0.262 32.579 8.835 53.532-22.378-4.708-42.343-23.453-48.795-49.667-3.197-12.933-2.528-27.144 0.93-39.612 3.429-12.729 9.445-23.947 16.449-33.77z" />
<glyph unicode="&#xe905;" glyph-name="hot-soup-bowl" d="M932.833 502.669c-10.717 5.86-23.421 10.619-39.979 15.004-24.404 6.47-58.012 12.094-99.899 16.794-81.669 9.125-189.689 14.159-304.219 14.159-114.47 0-222.51-5.034-304.199-14.159-41.887-4.68-75.494-10.324-99.899-16.794-16.558-4.385-29.262-9.125-39.979-15.004-40.333-22.025-44.659-56.557-44.659-70.401 0-1.082 0.020-2.222 0.098-3.54 1.278-164.361 113.9-306.598 276.373-373.971v-6.961c0-20.806 16.892-37.718 37.737-37.718h349.114c20.845 0 37.718 16.912 37.718 37.718v6.961c162.512 67.373 275.075 209.551 276.412 373.971 0.039 1.259 0.059 2.458 0.059 3.54-0.020 13.844-4.366 48.376-44.679 70.401zM669.144 123.172l-21.612-8.948c22.929 19.252 43.951 40.136 62.771 62.594 38.858 46.233 67.766 98.070 85.622 152.837 0 0 47.216 0.728 99.092 22.811-22.89-84.167-123.87-186.995-225.873-229.295zM488.736 385.367c-231.556 0-419.299 20.943-419.299 46.901 0 25.899 187.723 46.882 419.299 46.882s419.299-20.983 419.299-46.882c0-25.899-187.723-46.901-419.299-46.901zM1015.033 853.16c-5.526 12.959-20.55 19.055-33.49 13.53-12.959-5.526-18.996-20.432-13.49-33.372 0.079-0.275 11.406-28.632-0.413-56.242-8.554-19.901-27.413-35.731-56.124-47.098-43.283-17.089-71.758-42.595-84.658-75.809-17.738-45.879 2.615-88.336 3.5-90.125 4.464-9.007 13.51-14.257 22.89-14.257 3.776 0 7.65 0.826 11.189 2.596 12.664 6.214 17.856 21.474 11.661 34.119-0.079 0.236-11.13 24.778-1.691 49.261 7.492 19.39 26.273 35.141 55.809 46.803 42.241 16.676 70.775 42.024 84.697 75.317 19.94 47.747 0.924 93.35 0.118 95.277zM699.349 565.695c3.835 0 7.768 0.885 11.366 2.694 12.586 6.312 17.659 21.533 11.406 34.119-0.118 0.256-11.779 24.994-2.065 49.91 7.453 19.252 26.037 35.004 55.239 46.803 42.103 17.069 70.342 42.673 83.99 76.104 19.468 47.904 0.059 93.35-0.787 95.258-5.624 12.9-20.766 18.878-33.608 13.215-12.861-5.644-18.8-20.57-13.136-33.49 0.118-0.295 11.661-28.534 0.118-56.242-8.318-19.98-27.039-35.987-55.692-47.589-43.106-17.482-71.424-43.244-83.99-76.576-17.325-46.016 3.422-88.316 4.346-90.086 4.425-8.908 13.49-14.12 22.811-14.12z" />
<glyph unicode="&#xe906;" glyph-name="fry" d="M377.163 533.663c-1.131-5.939 1.822-11.904 7.229-14.611 5.407-2.703 11.951-1.483 16.028 2.979 30.772 33.685 62.322 81.728 46.071 125.585-24.577 66.339-48.712 95.78-37.908 145.752 0.705 3.259-0.918 6.581-3.924 8.024-3.006 1.446-6.617 0.645-8.722-1.942-20.377-25.042-46.567-69.441-38.905-126.193 8.719-64.586 28.075-97.875 20.131-139.594zM198.155 497.086c-1.131-5.939 1.822-11.904 7.229-14.611 5.407-2.703 11.951-1.483 16.028 2.979 30.772 33.685 62.322 81.728 46.071 125.585-24.577 66.339-48.712 95.78-37.908 145.752 0.705 3.259-0.918 6.581-3.924 8.024-3.006 1.446-6.617 0.645-8.722-1.942-20.374-25.042-46.567-69.441-38.905-126.193 8.719-64.586 28.075-97.875 20.131-139.594zM556.171 510.387c-1.131-5.939 1.822-11.904 7.229-14.611 5.407-2.703 11.951-1.483 16.028 2.979 30.772 33.685 62.322 81.728 46.071 125.585-24.577 66.339-48.712 95.78-37.908 145.752 0.705 3.259-0.918 6.581-3.924 8.024-3.006 1.446-6.617 0.645-8.722-1.942-20.377-25.042-46.567-69.441-38.905-126.193 8.719-64.586 28.075-97.875 20.131-139.594zM958.11 380.845c-28.318 0-904.487 0-928.968 0-8.549 0-16.663-3.761-22.196-10.278s-7.951-15.147-6.557-23.583c23.556-142.523 193.965-253.095 400.686-253.095 171.742 0 318.402 76.328 376.628 183.886l169.741-27.849c19.084-3.132 38.583 2.281 53.324 14.801s23.237 30.885 23.237 50.225c-0.003 36.392-29.502 65.893-65.893 65.893z" />
<glyph unicode="&#xe907;" glyph-name="chef-hat" d="M742.637 838.984c-4.268 0-8.554-0.112-12.854-0.326-46.482 75.424-127.87 121.342-217.783 121.342-89.918 0-171.305-45.919-217.778-121.342-4.3 0.219-8.591 0.326-12.859 0.326-141.194 0-256.061-114.871-256.061-256.065 0-118.128 81.052-219.819 193.030-248.154v-363.827c0-19.302 15.64-34.942 34.942-34.942h517.451c19.302 0 34.942 15.64 34.942 34.942v363.808c111.959 28.345 193.030 130.064 193.030 248.173 0 141.194-114.866 256.065-256.061 256.065zM735.783 5.884h-447.567v65.859h447.576v-65.859zM766.327 398.303c-17.457-2.218-30.544-17.066-30.544-34.663v-233.656h-67.033v217.941c0 16.083-13.036 29.118-29.118 29.118s-29.118-13.036-29.118-29.118v-217.941h-69.4v217.941c0 16.083-13.036 29.118-29.118 29.118s-29.118-13.036-29.118-29.118v-217.941h-69.386v217.941c0 16.083-13.036 29.118-29.118 29.118s-29.118-13.036-29.118-29.118v-217.941h-67.038v230.269c0.037 0.396 0.070 0.792 0.098 1.188 1.155 18.412-12.197 34.551-30.502 36.862-92.708 11.694-162.621 91.064-162.621 184.616 0 102.66 83.521 186.181 186.176 186.181 8.987 0 18.137-0.671 27.218-2.008 15.006-2.199 29.696 5.516 36.4 19.111 31.63 64.098 95.634 103.913 167.014 103.913 71.375 0 135.38-39.82 167.033-103.918 6.704-13.59 21.371-21.296 36.405-19.106 9.057 1.332 18.207 2.008 27.199 2.008 102.655 0 186.176-83.521 186.176-186.181 0-93.496-69.852-172.861-162.486-184.616z" />
<glyph unicode="&#xe908;" glyph-name="7869518801551938542" horiz-adv-x="1078" d="M538.947-28.968l-78.147 71.141c-277.558 251.688-460.8 417.684-460.8 621.406 0 165.996 130.425 296.421 296.421 296.421 93.777 0 183.781-43.655 242.526-112.64 58.745 68.985 148.749 112.64 242.526 112.64 165.996 0 296.421-130.425 296.421-296.421 0-203.722-183.242-369.718-460.8-621.945l-78.147-70.602z" />
<glyph unicode="&#xe909;" glyph-name="20070365361551938938" horiz-adv-x="1280" d="M1152 960h-1024c-70.4 0-128-57.6-128-128v-768c0-70.4 57.6-128 128-128h1024c70.4 0 128 57.6 128 128v768c0 70.4-57.6 128-128 128zM1152 64h-1024v768h1024v-768zM402.56 210.56l-78.72-78.72c-88.32 86.4-131.84 201.6-131.84 316.16s43.52 229.76 131.2 316.8l78.72-78.72c-64.64-65.92-97.92-151.68-97.92-238.080s33.28-172.16 98.56-237.44zM640 224c123.52 0 224 100.48 224 224s-100.48 224-224 224c-123.52 0-224-100.48-224-224s100.48-224 224-224zM640 544c53.12 0 96-42.88 96-96s-42.88-96-96-96c-53.12 0-96 42.88-96 96s42.88 96 96 96zM878.080 209.92c64.64 65.92 97.92 151.68 97.92 238.080s-33.28 172.16-98.56 237.44l78.72 78.72c88.32-86.4 131.84-201.6 131.84-316.16s-43.52-229.76-131.2-316.8l-78.72 78.72z" />
<glyph unicode="&#xe90a;" glyph-name="18720295031537184101" horiz-adv-x="724" d="M619.667 624.217l-120.443 120.458c-5.241 5.24-12.344 8.182-19.752 8.182-7.406 0-14.512-2.942-19.747-8.178l-120.466-120.466c-0.015-0.015-0.029-0.036-0.049-0.051l-231.056-231.057c-5.032-5.034-7.95-11.788-8.166-18.901l-3.779-124.23c-0.235-7.698 2.721-15.149 8.166-20.597 5.246-5.245 12.352-8.178 19.747-8.178 0.282 0 0.57 0.004 0.853 0.016l124.227 3.79c7.109 0.217 13.867 3.136 18.898 8.163l351.567 351.558c10.907 10.901 10.907 28.586 0 39.492zM479.462 523.518l-80.956 80.944 80.966 80.967 80.949-80.96-80.959-80.951zM236.434 280.489l-83.492-2.551 2.54 83.495 203.525 203.529 80.96-80.949-203.532-203.524z" />
<glyph unicode="&#xe90b;" glyph-name="19719798571564139550" d="M896 960h-768c-70.692 0-128-57.308-128-128v0-853.28c0.001-17.119 10.033-31.895 24.54-38.769l0.26-0.111c5.268-2.418 11.428-3.831 17.917-3.84h0.003c10.595 0.018 20.282 3.89 27.737 10.288l-0.057-0.048 250.72 214.88c22.25 19.188 51.44 30.876 83.359 30.88h491.521c70.692 0 128 57.308 128 128v0 512c0 70.692-57.308 128-128 128v0zM938.72 320c-0.091-23.557-19.163-42.629-42.711-42.72h-491.529c-53.163-0.029-101.781-19.461-139.163-51.598l0.283 0.238-180.32-154.56v760.64c0.091 23.557 19.163 42.629 42.711 42.72h768.009c23.557-0.091 42.629-19.163 42.72-42.711v-0.009zM725.28 708.96h-426.56c-0.781 0.051-1.694 0.080-2.613 0.080-23.594 0-42.72-19.126-42.72-42.72s19.126-42.72 42.72-42.72c0.919 0 1.832 0.029 2.737 0.086l-0.124-0.006h426.56c0.781-0.051 1.694-0.080 2.613-0.080 23.594 0 42.72 19.126 42.72 42.72s-19.126 42.72-42.72 42.72c-0.919 0-1.832-0.029-2.737-0.086l0.124 0.006zM725.28 538.24h-426.56c-0.781 0.051-1.694 0.080-2.613 0.080-23.594 0-42.72-19.126-42.72-42.72s19.126-42.72 42.72-42.72c0.919 0 1.832 0.029 2.737 0.086l-0.124-0.006h426.56c0.781-0.051 1.694-0.080 2.613-0.080 23.594 0 42.72 19.126 42.72 42.72s-19.126 42.72-42.72 42.72c-0.919 0-1.832-0.029-2.737-0.086l0.124 0.006z" />
<glyph unicode="&#xe90c;" glyph-name="16089630971558965371" d="M512 960c-282.77 0-512-229.23-512-512s229.23-512 512-512c282.77 0 512 229.23 512 512v0c0 282.77-229.23 512-512 512v0zM512 21.28c-235.671 0-426.72 191.049-426.72 426.72s191.049 426.72 426.72 426.72c235.671 0 426.72-191.049 426.72-426.72v0c-0.454-235.488-191.232-426.266-426.677-426.72h-0.043zM696.8 405.28l-142.080 106.72v234.72c0 23.594-19.126 42.72-42.72 42.72s-42.72-19.126-42.72-42.72v0-256c0.035-3.539 0.5-6.952 1.344-10.213l-0.064 0.293c0.845-3.397 2.053-6.381 3.613-9.139l-0.093 0.179c1.175-2.952 2.74-5.494 4.668-7.713l-0.028 0.033s0-1.28 1.28-1.6c1.779-2.068 3.719-3.906 5.829-5.532l0.091-0.068 1.76-1.28 168.96-126.72c6.888-5.293 15.632-8.483 25.122-8.483 0.168 0 0.336 0.001 0.504 0.003h-0.026c23.525 0.090 42.561 19.182 42.561 42.72 0 13.872-6.612 26.2-16.856 34.004l-0.104 0.076z" />
<glyph unicode="&#xe90d;" glyph-name="14246704581556277308" horiz-adv-x="512" d="M442.182 692.364v-492.451c0-97.28-71.215-183.855-168.029-193.164-111.244-10.705-204.335 76.335-204.335 185.251v575.302c0 60.975 43.753 116.364 104.262 122.415 69.818 6.982 128.465-47.476 128.465-115.898v-488.727c0-25.6-20.945-46.545-46.545-46.545s-46.545 20.945-46.545 46.545v407.273c0 19.084-15.825 34.909-34.909 34.909s-34.909-15.825-34.909-34.909v-400.756c0-60.975 43.753-116.364 104.262-122.415 69.818-6.982 128.465 47.476 128.465 115.898v480.815c0 97.28-71.215 183.855-168.029 193.164-110.778 10.705-204.335-76.335-204.335-185.251v-571.113c0-133.585 97.745-253.207 230.865-265.775 153.135-13.964 281.135 105.193 281.135 255.069v500.364c0 19.084-15.825 34.909-34.909 34.909s-34.909-15.825-34.909-34.909z" />
<glyph unicode="&#xe90e;" glyph-name="special" horiz-adv-x="922" d="M168.448 330.752l138.752-138.752v-204.8c0-28.16 23.040-51.2 51.2-51.2h204.8c28.16 0 51.2 23.040 51.2 51.2v204.8l138.752 138.752c9.728 9.728 14.848 22.528 14.848 36.352v183.296c0 28.16-23.040 51.2-51.2 51.2h-512c-28.16 0-51.2-23.040-51.2-51.2v-183.808c0-13.312 5.632-26.624 14.848-35.84zM460.8 960c28.16 0 51.2-23.040 51.2-51.2v-51.2c0-28.16-23.040-51.2-51.2-51.2s-51.2 23.040-51.2 51.2v51.2c0 28.16 23.040 51.2 51.2 51.2zM61.952 797.696c19.968 19.968 52.224 19.968 72.704 0l36.352-36.352c19.968-19.968 19.968-52.224 0-72.192s-52.224-19.968-72.192 0l-36.864 36.352c-19.968 19.968-19.968 52.224 0 72.192zM751.104 761.344l36.352 36.352c19.968 19.968 52.224 19.968 72.192 0s19.968-52.224 0-72.192l-36.352-36.352c-19.968-19.968-52.224-19.968-72.192 0s-19.968 52.224 0 72.192z" />
<glyph unicode="&#xe90f;" glyph-name="3894908741561029732" d="M275.413 149.333l-190.080-149.333v789.333c0 23.564 19.103 42.667 42.667 42.667v0h768c23.564 0 42.667-19.103 42.667-42.667v0-597.333c0-23.564-19.103-42.667-42.667-42.667v0h-620.587zM170.667 175.573l75.221 59.093h607.445v512h-682.667v-571.093zM469.333 405.333h85.333v-85.333h-85.333v85.333zM469.333 661.333h85.333v-213.333h-85.333v213.333z" />
<glyph unicode="&#xe910;" glyph-name="13877055191561029724" d="M426.667 832h170.667c188.513 0 341.333-152.82 341.333-341.333s-152.82-341.333-341.333-341.333v0-149.333c-213.333 85.333-512 213.333-512 490.667 0 188.513 152.82 341.333 341.333 341.333v0zM512 234.667h85.333c141.385 0 256 114.615 256 256s-114.615 256-256 256v0h-170.667c-141.385 0-256-114.615-256-256v0c0-154.027 105.045-254.549 341.333-361.813v105.813z" />
<glyph unicode="&#xe911;" glyph-name="premium-jp" horiz-adv-x="996" d="M222.766 960l52.656-18.22-8.103-10.128c35.104-39.155 68.148-70.208 99.235-93.158 31.053-21.592 71.555-43.874 121.506-66.824-4.051-4.063-8.103-8.103-12.154-12.166-4.051-4.051-7.424-7.424-10.128-10.128-5.398-8.103-9.449-15.526-12.154-22.282-37.797 18.899-69.54 37.786-95.195 56.707v-40.502h-251.114v34.413c-24.285-18.922-51.321-36.451-80.992-52.644-4.063 8.091-12.845 21.58-26.322 40.502 33.734 17.529 58.031 32.399 72.901 44.553 25.632 20.257 51.309 41.837 76.964 64.798 22.95 22.984 47.258 51.332 72.901 85.078zM24.308 650.153v42.528h433.367v-42.528h-245.037l-52.656-105.289c36.451 1.335 94.481 7.412 174.162 18.22l-42.516 48.605 36.451 24.297c37.774-36.451 58.733-58.054 62.784-64.798 21.58-28.348 37.13-49.284 46.579-62.784l-44.553-30.385c-13.501 21.592-23.629 37.797-30.385 48.616-35.127-5.375-61.449-9.116-78.967-11.141-17.552-2.037-37.164-5.064-58.744-9.116l-119.48-16.205-48.605-6.077-16.205 52.656 66.824 4.051 44.553 109.352h-127.571zM236.946 901.279c-49.951-55.372-89.107-93.848-117.454-115.429h234.909c-35.127 29.683-58.042 49.928-68.85 60.759-12.154 12.131-28.359 30.362-48.605 54.67zM585.258 563.083v238.96h352.363v-238.96h-85.078c24.32-9.449 44.553-17.552 60.759-24.297 36.462-9.426 64.085-16.205 83.041-20.245-10.83-16.205-19.578-31.053-26.345-44.553-22.95 5.398-56.017 14.87-99.223 28.348-10.796 4.063-21.949 8.793-33.401 14.168-11.463 5.398-22.616 10.128-33.401 14.168l28.371 32.399h-141.751l26.322-30.385c-18.945-9.415-33.769-16.516-44.553-21.27-10.807-4.719-18.933-8.402-24.285-11.13-40.525-13.478-70.887-22.95-91.132-28.348-5.398 13.501-14.168 29.027-26.322 46.579 21.58 4.051 48.605 10.807 80.992 20.245 20.268 6.745 39.811 14.859 58.744 24.297l-85.101 0.023zM613.617 826.352v115.417h293.653v-115.417h-293.653zM884.977 733.194v28.348h-249.1v-28.348h249.1zM884.977 666.37v30.374h-249.1v-30.374h249.1zM884.977 601.56v30.374h-249.1v-30.374h249.1zM854.592 864.828v38.476h-190.367v-38.476h190.367zM26.334 387.61h129.608l6.066 4.051 28.359-30.397c-2.716-5.398-22.282-50.596-58.744-135.662 18.922-28.371 33.734-53.991 44.553-76.976 6.745-20.268 10.128-39.155 10.128-56.707 0-21.603-6.077-38.488-18.22-50.607-10.807-12.177-35.127-21.603-72.901-28.371-5.398 18.933-11.475 36.462-18.22 52.656h38.476c8.103 0 14.168 2.037 18.22 6.066 2.693 2.693 4.063 8.77 4.063 18.231 0 13.466-3.372 31.697-10.117 54.67-5.409 17.529-18.933 43.874-40.513 78.967l30.385 78.99c4.051 6.745 6.745 13.466 8.091 20.234 1.335 6.768 4.063 14.859 8.103 24.285h-64.798v-409.059h-42.516v449.596h-0.023v0.035zM216.689-1.193v384.751h220.752v-220.718h-76.976c2.705-24.285 7.424-45.9 14.18-64.81l72.901 54.67 28.348-40.513-83.030-52.667c20.257-33.757 48.605-62.105 85.055-85.055-9.449-5.375-16.205-11.463-20.257-18.231-1.347-1.312-3.372-4.707-6.077-10.117-2.705-5.398-5.398-10.14-8.103-14.168-40.502 32.376-69.552 64.81-87.069 97.186-17.552 35.127-29.706 79.68-36.451 133.66h-56.719v-153.917l68.838 14.18-2.026-42.528c-13.501-4.051-33.757-8.793-60.747-14.145l-87.069-20.268-10.14 46.579 44.588 6.112zM390.851 290.412v50.596h-127.583v-50.596h127.583zM390.851 203.32v50.63h-127.583v-50.63h127.583zM613.617 213.459v42.516h291.628v-42.516h-123.531v-78.967h125.557v-40.513h-125.557v-95.195c6.756-1.347 13.834-2.716 21.281-4.074 7.424-1.347 13.489-2.359 18.231-3.050 4.719-0.714 9.127-1.013 13.178-1.013l95.195-2.049c21.58 0 42.516 0.679 62.773 2.049-9.438-14.859-16.907-29.695-22.305-44.553-74.236 0-128.918 1.347-164.010 4.063-37.809 6.768-68.182 16.205-91.132 28.348-31.076 14.859-58.744 35.748-83.041 62.784-16.205-32.388-27.669-53.381-34.436-62.784-9.438-14.859-21.592-29.015-36.451-42.505-17.54 17.529-29.706 28.348-36.451 32.388 27.013 27.001 47.258 54.67 60.759 83.018 14.859 31.041 28.336 71.578 40.502 121.529l46.579-8.091c-1.335-10.819-8.816-37.164-22.282-78.978 20.257-27.036 49.261-50.619 87.069-70.875v198.47h-123.554zM735.112 349.145v52.633h52.644v-52.633h182.264v-115.429h-48.616v72.901h-324.004v-72.901h-48.616v115.429h186.327z" />
<glyph unicode="&#xe912;" glyph-name="premium-en" horiz-adv-x="6440" d="M0-46.885v1006.885h326.251c123.616 0 204.198-5.032 241.744-15.095 57.711-15.095 106.006-47.952 144.924-98.535 38.918-50.621 58.397-115.955 58.397-196.155 0-61.827-11.207-113.744-33.658-155.902-22.451-42.082-50.926-75.207-85.499-99.259-34.573-24.014-69.718-39.948-105.434-47.724-48.524-9.606-118.814-14.409-210.868-14.409h-132.574v-379.807h-203.283zM203.321 789.689v-285.732h111.266c80.124 0 133.718 5.298 160.705 15.819 27.026 10.521 48.219 26.987 63.543 49.439s23.023 48.524 23.023 78.332c0 36.631-10.749 66.821-32.286 90.644-21.499 23.824-48.753 38.69-81.725 44.636-24.281 4.574-73.034 6.861-146.297 6.861h-98.23zM938.883-46.885v1006.885h427.912c107.607 0 185.787-8.996 234.54-27.14 48.753-18.068 87.824-50.201 117.098-96.438 29.313-46.275 43.95-99.183 43.95-158.685 0-75.55-22.223-137.949-66.63-187.159s-110.809-80.238-199.166-93.046c43.95-25.615 80.238-53.784 108.865-84.469 28.588-30.685 67.202-85.155 115.726-163.45l122.93-196.422h-243.116l-146.983 219.064c-52.222 78.37-87.938 127.695-107.149 148.088-19.211 20.355-39.605 34.306-61.141 41.892s-55.614 11.321-102.347 11.321h-41.205v-420.326l-203.283-0.114zM1142.204 534.185h150.413c97.544 0 158.418 4.117 182.699 12.35s43.264 22.413 57.024 42.578c13.722 20.126 20.622 45.284 20.622 75.512 0 33.925-9.034 61.256-27.14 82.068s-43.607 34.039-76.579 39.49c-16.467 2.325-65.906 3.431-148.355 3.431h-158.685v-255.428zM1954.039-46.885v1006.885h746.578v-170.349h-543.295v-223.18h505.52v-169.663h-505.52v-274.030h562.544v-169.587l-765.827-0.076zM2889.491-46.885v1006.885h304.257l182.699-686.847 180.641 686.847h304.943v-1006.885h-188.874v792.624l-199.89-792.624h-195.736l-199.204 792.624v-792.624h-188.836zM4057.806-46.885v1006.885h203.321v-1006.885h-203.321zM4453.432 960h203.321v-545.353c0-86.566 2.478-142.637 7.547-168.253 8.691-41.244 29.389-74.292 62.132-99.259s77.456-37.394 134.251-37.394c57.749 0 101.165 11.817 130.516 35.373 29.351 23.595 46.885 52.565 52.908 86.871s8.881 91.331 8.881 170.997v556.979h203.321v-528.886c0-120.872-5.527-206.218-16.505-256.191-11.016-49.896-31.219-92.017-60.798-126.285-29.541-34.344-69.108-61.713-118.432-82.106-49.515-20.355-114.049-30.532-193.715-30.532-96.133 0-169.091 11.092-218.721 33.277-49.744 22.223-88.967 51.078-117.784 86.566-28.893 35.488-47.876 72.691-57.024 111.647-13.341 57.749-19.898 142.866-19.898 255.504v537.043zM5467.826-46.885v1006.885h304.257l182.699-686.847 180.641 686.847h304.943v-1006.885h-188.874v792.624l-199.852-792.624h-195.774l-199.204 792.624v-792.624h-188.836z" />
</font>
</defs>
</svg>
